<svg xmlns="http://www.w3.org/2000/svg" id="screenshot-46242883-adca-8028-8007-f1e5de0f7741" width="48" height="48" fill="none" version="1.1"><g id="shape-46242883-adca-8028-8007-f1e5de0f7741"><defs id="defs1"><clipPath id="frame-clip-46242883-adca-8028-8007-f1e5de0f7741-render-1" class="frame-clip frame-clip-def"><rect id="rect1" width="48" height="48" x="0" y="0" rx="0" ry="0"/></clipPath></defs><g id="g13" class="frame-container-wrapper"><g id="g12" class="frame-container-blur"><g id="g11" class="frame-container-shadows"><g id="g10" fill="none" clip-path="url(#frame-clip-46242883-adca-8028-8007-f1e5de0f7741-render-1)"><g id="fills-46242883-adca-8028-8007-f1e5de0f7741" class="fills"><rect id="rect2" width="48" height="48" x="0" y="0" class="frame-background" rx="0" ry="0" style="fill:#fff;fill-opacity:0"/></g><g id="g9" class="frame-children"><g id="shape-46242883-adca-8028-8007-f1e4e5037a39"><g id="fills-46242883-adca-8028-8007-f1e4e5037a39" class="fills"><rect id="rect3" width="22" height="29" x="18" y="4" rx="0" ry="0" style="fill:#44eb89;fill-opacity:1"/></g></g><g id="shape-46242883-adca-8028-8007-f1e5a8675537"><g id="fills-46242883-adca-8028-8007-f1e5a8675537" class="fills"><rect id="rect4" width="6" height="28" x="9" y="4" rx="0" ry="0" style="fill:#44eb89;fill-opacity:1"/></g></g><g id="shape-46242883-adca-8028-8007-f1e5978f7e72"><g id="fills-46242883-adca-8028-8007-f1e5978f7e72" class="fills"><rect id="rect5" width="28" height="10" x="8" y="35" rx="0" ry="0" style="fill:#3bcd77;fill-opacity:1"/></g></g><g id="shape-46242883-adca-8028-8007-f1e467c4ffd5" style="fill:#000"><g id="shape-46242883-adca-8028-8007-f1e467c5ffae"><g id="fills-46242883-adca-8028-8007-f1e467c5ffae" class="fills"><path id="path6" d="M13.125 48.167q-3.504 0-5.981-2.477-2.477-2.478-2.477-5.982V8.292q0-3.504 2.477-5.982Q9.62-.167 13.125-.167h30.208v36.25q-1.51 0-2.567 1.058-1.058 1.056-1.058 2.567 0 1.51 1.058 2.568 1.057 1.057 2.567 1.057v4.834zM9.5 32.035a7 7 0 0 1 1.752-.604 9.5 9.5 0 0 1 1.873-.181h1.208V4.667h-1.208q-1.51 0-2.568 1.057Q9.501 6.781 9.5 8.292Zm9.667-.785H38.5V4.667H19.167Zm-9.667.785V4.667Zm3.625 11.298H35.66a11 11 0 0 1-.573-1.722 8 8 0 0 1-.212-1.903q0-.966.181-1.873a7 7 0 0 1 .604-1.752H13.125q-1.57 0-2.598 1.058Q9.5 38.197 9.5 39.708q0 1.572 1.027 2.598 1.027 1.027 2.598 1.027" style="fill:#49ff94;fill-opacity:1"/></g></g></g><g id="shape-46242883-adca-8028-8007-f1e3be29c3f0" transform="translate(.346 -1.038)"><g id="g8" class="text-container"><g id="fills-46242883-adca-8028-8007-f1e3be29c3f0" class="fills"><path id="text7" d="M22.257 29.922h7.282c4.202 0 7.17-2.744 7.17-6.608 0-2.828-1.624-4.62-4.089-5.208 1.709-.868 2.773-2.38 2.773-4.228 0-3.416-2.66-5.824-6.442-5.824h-6.694c-.84 0-1.456.616-1.456 1.456v18.956c0 .84.616 1.456 1.456 1.456m1.457-12.88v-6.3h5.237c2.129 0 3.641 1.008 3.641 3.136s-1.512 3.164-3.64 3.164zm0 10.192V19.73h5.825c2.55 0 4.37 1.204 4.37 3.584 0 2.576-1.82 3.92-4.37 3.92z" aria-label="B" style="fill:#fff"/></g></g></g></g></g></g></g></g></g></svg>